<svg width="1444" height="1032" viewBox="0 0 1444 1032" fill="none" xmlns="http://www.w3.org/2000/svg">
<rect x="4" width="1440" height="1024" fill="white"/>
<g filter="url(#filter0_d)">
<path d="M4 0H860C516.16 167.982 562.504 423.446 860 1024H4V0Z" fill="#FFF2C7"/>
</g>
<path d="M540.675 626.892H539.336L539.181 628.222L532.388 686.578C531.569 693.619 526.745 698.405 521.522 698.405H426.64C421.417 698.405 416.593 693.619 415.773 686.578L408.98 628.222L408.825 626.892H407.486H405.405C403.061 626.892 400.666 624.437 400.666 620.734V615.626C400.666 611.922 403.061 609.468 405.405 609.468H422.923H423.78L424.217 608.73L451.994 561.857C451.994 561.857 451.994 561.857 451.994 561.857C453.153 559.901 454.785 558.801 456.42 558.484C458.042 558.17 459.802 558.598 461.327 559.959C464.459 562.755 465.242 568.338 462.87 572.341L442.215 607.197L440.869 609.468H443.509H504.653H507.293L505.947 607.197L485.291 572.34L483.997 573.107L485.291 572.34C482.919 568.338 483.702 562.755 486.835 559.958L486.835 559.958C488.36 558.598 490.119 558.17 491.741 558.484C493.376 558.801 495.009 559.901 496.168 561.856L523.945 608.73L524.382 609.468H525.239H542.757C545.101 609.468 547.495 611.922 547.495 615.626V620.734C547.495 624.437 545.101 626.892 542.757 626.892H540.675ZM481.828 671.815V636.058C481.828 631.298 478.633 626.892 474.081 626.892C469.528 626.892 466.333 631.298 466.333 636.058V671.815C466.333 676.575 469.528 680.982 474.081 680.982C478.633 680.982 481.828 676.575 481.828 671.815ZM510.964 671.815V636.058C510.964 631.298 507.768 626.892 503.216 626.892C498.664 626.892 495.468 631.298 495.468 636.058V671.815C495.468 676.575 498.664 680.982 503.216 680.982C507.768 680.982 510.964 676.575 510.964 671.815ZM452.693 671.815V636.058C452.693 631.298 449.498 626.892 444.946 626.892C440.393 626.892 437.198 631.298 437.198 636.058V671.815C437.198 676.575 440.393 680.982 444.946 680.982C449.498 680.982 452.693 676.575 452.693 671.815Z" fill="#2B1C1C" stroke="#FFF2C7" stroke-width="3.0088"/>
<path fill-rule="evenodd" clip-rule="evenodd" d="M254.739 354.088C254.739 337.471 268.21 324 284.827 324H404.577C421.195 324 434.665 337.471 434.665 354.088V629.694H317.906C316.244 629.694 314.897 631.041 314.897 632.703V639.924C314.897 641.586 316.244 642.933 317.906 642.933H434.665V653.163C434.665 669.78 421.195 683.251 404.577 683.251H284.827C268.21 683.251 254.739 669.78 254.739 653.163V354.088ZM419.622 399.822H270.987V603.217H419.622V399.822Z" fill="#2B1C1C"/>
<path d="M306.208 364.318H300.191V370.335V424.608C300.191 437.092 310.311 447.212 322.795 447.212C335.279 447.212 345.399 437.092 345.399 424.608V370.335V364.318H339.381H306.208Z" fill="#FFF2C7" stroke="#2B1C1C" stroke-width="12.0352"/>
<path d="M393.919 364.318H387.902V370.336V421.354C387.902 435.589 398.404 447.643 412.506 449.593L415.636 450.025C437.728 453.08 454.614 430.726 445.636 410.311L426.992 367.913L425.411 364.318H421.483H393.919Z" fill="#FFF2C7" stroke="#2B1C1C" stroke-width="12.0352"/>
<path d="M296.087 364.318H302.105V370.336V421.354C302.105 435.589 291.603 447.643 277.501 449.593L274.371 450.025C252.278 453.08 235.393 430.726 244.371 410.311L263.015 367.913L264.596 364.318H268.523H296.087Z" fill="#FFF2C7" stroke="#2B1C1C" stroke-width="12.0352"/>
<path d="M349.501 364.318H343.483V370.335V424.327C343.483 436.966 353.729 447.212 366.368 447.212C379.008 447.212 389.254 436.966 389.254 424.327V370.335V364.318H383.236H349.501Z" fill="#FFF2C7" stroke="#2B1C1C" stroke-width="12.0352"/>
<line x1="322.828" y1="680.879" x2="124.035" y2="684.165" stroke="#2B1C1C" stroke-width="4.28427"/>
<path d="M233.677 683.878C213.113 658.744 162.73 623.556 125.714 683.878" stroke="#2B1C1C" stroke-width="4.28427"/>
<path d="M167.7 668.455L183.124 683.878L195.12 668.455" stroke="#2B1C1C" stroke-width="4.28427"/>
<defs>
<filter id="filter0_d" x="0" y="0" width="864" height="1032" filterUnits="userSpaceOnUse" color-interpolation-filters="sRGB">
<feFlood flood-opacity="0" result="BackgroundImageFix"/>
<feColorMatrix in="SourceAlpha" type="matrix" values="0 0 0 0 0 0 0 0 0 0 0 0 0 0 0 0 0 0 127 0"/>
<feOffset dy="4"/>
<feGaussianBlur stdDeviation="2"/>
<feColorMatrix type="matrix" values="0 0 0 0 0 0 0 0 0 0 0 0 0 0 0 0 0 0 0.25 0"/>
<feBlend mode="normal" in2="BackgroundImageFix" result="effect1_dropShadow"/>
<feBlend mode="normal" in="SourceGraphic" in2="effect1_dropShadow" result="shape"/>
</filter>
</defs>
</svg>
