<svg width="118" height="34" viewBox="0 0 118 34" fill="none" xmlns="http://www.w3.org/2000/svg">
<path fill-rule="evenodd" clip-rule="evenodd" d="M53.7995 7.7814C51.6791 6.45639 48.886 7.10123 47.561 9.22167L41.6515 18.6789C43.5913 16.6967 46.7128 16.2566 49.1615 17.7867C50.0743 18.3571 50.782 19.1315 51.2625 20.0138C51.6642 19.6137 52.0269 19.1617 52.3402 18.6602L55.2398 14.0199C56.5648 11.8995 55.92 9.1064 53.7995 7.7814Z" fill="white"/>
<rect x="45.1224" y="10.2311" width="9.05469" height="27.1641" rx="4.52734" transform="rotate(-32 45.1224 10.2311)" fill="white"/>
<path d="M99.2843 8.21583C100.609 6.09538 103.402 5.45055 105.523 6.77555C107.643 8.10055 108.288 10.8936 106.963 13.0141C105.638 15.1345 102.845 15.7794 100.725 14.4544C98.6042 13.1294 97.9593 10.3363 99.2843 8.21583Z" fill="#FFA500"/>
<path d="M66.8383 8.36675C68.1633 6.2463 70.9564 5.60147 73.0768 6.92647C75.1973 8.25147 75.8421 11.0446 74.5171 13.165C73.1921 15.2854 70.399 15.9303 68.2786 14.6053C66.1581 13.2803 65.5133 10.4872 66.8383 8.36675Z" fill="#FFA500"/>
<rect y="16.8987" width="13.4991" height="15.0718" rx="6.74953" fill="#FFA500"/>
<rect width="23.1389" height="24.0659" rx="11.5695" transform="matrix(0.82555 0.564329 -0.495991 0.868328 15.9976 0)" fill="#FFA500"/>
<rect width="15.1087" height="15.7139" rx="7.55433" transform="matrix(0.82555 0.564329 -0.495991 0.868328 31.1738 4.64642)" fill="#FFA500"/>
<rect x="2.92249" y="19.639" width="42.4455" height="12.3315" rx="6.16575" fill="#FFA500"/>
<path d="M37.4284 21.1917C37.1664 22.5978 36.4082 23.636 35.0021 23.3739C33.596 23.1119 32.6685 21.7596 32.9306 20.3535C33.1926 18.9474 34.5449 18.02 35.951 18.282C37.3571 18.544 37.6905 19.7856 37.4284 21.1917Z" fill="white"/>
<path d="M44.5419 21.1743C44.5419 19.744 45.0971 18.5845 46.5274 18.5845C47.9577 18.5845 49.1172 19.744 49.1172 21.1743C49.1172 22.6046 47.9577 23.7641 46.5274 23.7641C45.0971 23.7641 44.5419 22.6046 44.5419 21.1743Z" fill="white"/>
<path d="M51.3099 27.2171C51.3099 31.0313 46.7016 32.742 41.1234 32.742C35.5452 32.742 30.9369 31.0313 30.9369 27.2171C30.9369 23.403 35.5452 19.7067 41.1234 19.7067C46.7016 19.7067 51.3099 23.403 51.3099 27.2171Z" fill="white"/>
<path d="M36.1773 23.1433C36.7078 22.2942 37.8262 22.036 38.6753 22.5666C39.8997 23.3316 39.7235 25.1171 38.666 26.1001C38.6119 26.1504 38.5612 26.2006 38.5145 26.2506C37.772 27.0454 36.5858 28.2209 35.6634 27.6445L35.1705 27.3365C34.5296 26.9361 34.3348 26.0919 34.7352 25.4511L36.1773 23.1433Z" fill="black"/>
<path d="M46.5308 23.4061C45.9989 22.5549 44.8777 22.2961 44.0265 22.828C42.8014 23.5935 42.9707 25.3821 44.0334 26.3609C44.0944 26.417 44.1512 26.4731 44.2031 26.5288C44.951 27.3313 46.1476 28.5116 47.0779 27.9302L47.5526 27.6336C48.196 27.2316 48.3917 26.3841 47.9896 25.7407L46.5308 23.4061Z" fill="black"/>
<circle cx="37.8948" cy="24.1957" r="0.431632" fill="white"/>
<circle cx="44.9735" cy="24.1957" r="0.431632" transform="rotate(180 44.9735 24.1957)" fill="white"/>
<ellipse cx="41.2183" cy="29.2458" rx="1.68337" ry="0.733775" fill="black"/>
<rect x="78.474" y="8.77826" width="9.05469" height="27.1641" rx="4.52734" transform="rotate(-28 78.474 8.77826)" fill="white"/>
<path fill-rule="evenodd" clip-rule="evenodd" d="M97.0064 11.8788L89.4161 24.0259C88.0911 26.1464 88.7359 28.9395 90.8564 30.2645C92.9768 31.5895 95.7699 30.9446 97.0949 28.8242L102.414 20.3126L100.481 16.2041C100.255 16.0978 100.033 15.977 99.8158 15.8413C98.3287 14.9121 97.363 13.4643 97.0064 11.8788Z" fill="white"/>
<path fill-rule="evenodd" clip-rule="evenodd" d="M97.0064 11.8788L89.4161 24.0259C88.0911 26.1464 88.7359 28.9395 90.8564 30.2645C92.9768 31.5895 95.7699 30.9446 97.0949 28.8242L102.414 20.3126L100.481 16.2041C100.255 16.0978 100.033 15.977 99.8158 15.8413C98.3287 14.9121 97.363 13.4643 97.0064 11.8788Z" fill="white"/>
<path fill-rule="evenodd" clip-rule="evenodd" d="M64.7198 12.5256L57.1295 24.6727C55.8045 26.7932 56.4493 29.5863 58.5697 30.9113C60.6902 32.2363 63.4833 31.5914 64.8083 29.471L70.1269 20.9594L68.1945 16.8509C67.9684 16.7446 67.7463 16.6238 67.5292 16.4881C66.0421 15.5589 65.0764 14.1111 64.7198 12.5256Z" fill="white"/>
<path fill-rule="evenodd" clip-rule="evenodd" d="M101.736 16.6388L106.595 26.967C108.369 30.7379 112.864 32.3567 116.634 30.5827L118 29.9403L109.365 11.5861C109.229 12.3626 108.944 13.1265 108.501 13.8362C107.037 16.1793 104.285 17.2282 101.736 16.6388Z" fill="url(#paint0_linear)"/>
<path fill-rule="evenodd" clip-rule="evenodd" d="M69.2898 16.7897L74.1487 27.118C75.9226 30.8889 80.4176 32.5077 84.1885 30.7338L85.554 30.0913L76.9195 11.7372C76.7835 12.5137 76.4985 13.2775 76.0551 13.9871C74.5909 16.3303 71.839 17.3792 69.2898 16.7897Z" fill="url(#paint1_linear)"/>
<defs>
<linearGradient id="paint0_linear" x1="77.5684" y1="-25.2747" x2="121.559" y2="38.9381" gradientUnits="userSpaceOnUse">
<stop offset="0.2464" stop-color="white" stop-opacity="0.714316"/>
<stop offset="0.849255" stop-color="white"/>
</linearGradient>
<linearGradient id="paint1_linear" x1="45.1224" y1="-25.1236" x2="89.1131" y2="39.0892" gradientUnits="userSpaceOnUse">
<stop offset="0.2464" stop-color="white" stop-opacity="0.714316"/>
<stop offset="0.849255" stop-color="white"/>
</linearGradient>
</defs>
</svg>
