<svg width="154" height="50" viewBox="0 0 154 50" fill="none" xmlns="http://www.w3.org/2000/svg">
<path d="M21.4946 4.80345L29.7036 9.54384L33.8659 7.14737L21.4946 0L0.830322 11.9403L4.97159 14.3368L21.4946 4.80345Z" fill="white"/>
<path d="M38.0073 9.54379L21.4948 19.0771L13.2858 14.3367L9.13403 16.7332L21.4948 23.8701L42.1696 11.9403L38.0073 9.54379Z" fill="white"/>
<path d="M4.15178 25.5834L0 23.187V37.4607L20.6643 49.401V44.6081L4.15178 35.0642V25.5834Z" fill="white"/>
<path d="M0 18.3939L16.5125 27.9272V37.408L20.6643 39.815V25.5308L0 13.601V18.3939Z" fill="white"/>
<path d="M34.6963 23.1869V18.394L22.3251 25.5308V49.401L26.4769 47.0045V27.9273L34.6963 23.1869Z" fill="white"/>
<path d="M38.8378 15.9974V35.0641L30.6288 39.815V44.6079L43 37.4606V13.601L38.8378 15.9974Z" fill="white"/>
<path d="M56.9143 17.9919C58.9051 17.9919 60.428 18.4376 61.4829 19.3291C62.5526 20.2205 63.0874 21.5056 63.0874 23.1845C63.0874 24.8485 62.5526 26.1336 61.4829 27.0399C60.428 27.9314 58.9051 28.3771 56.9143 28.3771H54.3069V32.7005H49.1143V17.9919H56.9143ZM56.0674 24.6999C56.632 24.6999 57.0777 24.5811 57.4046 24.3434C57.7314 24.0908 57.8949 23.7045 57.8949 23.1845C57.8949 22.6645 57.7314 22.2856 57.4046 22.0479C57.0777 21.7954 56.632 21.6691 56.0674 21.6691H54.3069V24.6999H56.0674ZM71.8692 17.7691C74.2166 17.7691 76.0441 18.4302 77.3515 19.7525C78.6738 21.0748 79.3349 22.9394 79.3349 25.3462C79.3349 27.7531 78.6738 29.6176 77.3515 30.9399C76.0441 32.2622 74.2166 32.9234 71.8692 32.9234C70.3241 32.9234 68.9869 32.6262 67.8578 32.0319C66.7435 31.4376 65.8818 30.5759 65.2726 29.4468C64.6784 28.3176 64.3812 26.9508 64.3812 25.3462C64.3812 23.7416 64.6784 22.3748 65.2726 21.2456C65.8818 20.1165 66.7435 19.2548 67.8578 18.6605C68.9869 18.0662 70.3241 17.7691 71.8692 17.7691ZM71.8692 21.6691C71.1115 21.6691 70.5544 21.9662 70.1978 22.5605C69.8561 23.1399 69.6852 24.0685 69.6852 25.3462C69.6852 26.6239 69.8561 27.5599 70.1978 28.1542C70.5544 28.7336 71.1115 29.0234 71.8692 29.0234C72.6269 29.0234 73.1766 28.7336 73.5184 28.1542C73.8601 27.5599 74.0309 26.6239 74.0309 25.3462C74.0309 24.0685 73.8601 23.1399 73.5184 22.5605C73.1766 21.9662 72.6269 21.6691 71.8692 21.6691ZM86.2773 28.8896H92.9407V32.7005H81.0847V17.9919H86.2773V28.8896ZM106.106 17.9919L100.958 27.5971V32.7005H95.7654V27.5971L90.6174 17.9919H95.7877L97.3477 21.3571L98.3951 24.0314L99.4426 21.3571L101.003 17.9919H106.106ZM107.418 32.7005V17.9919H115.842C117.7 18.0068 119.081 18.3411 119.988 18.9948C120.894 19.6336 121.347 20.6068 121.347 21.9142C121.347 22.7908 121.08 23.5336 120.545 24.1428C120.01 24.7519 119.17 25.1382 118.026 25.3016V25.3239C119.304 25.4576 120.24 25.8365 120.834 26.4605C121.429 27.0845 121.726 27.8719 121.726 28.8228C121.726 30.1154 121.288 31.0885 120.411 31.7422C119.549 32.3811 118.22 32.7005 116.422 32.7005H107.418ZM112.388 23.6971H114.706C115.597 23.6971 116.043 23.3405 116.043 22.6274C116.043 21.9142 115.597 21.5576 114.706 21.5576H112.388V23.6971ZM112.388 29.3131H115.04C115.961 29.3131 116.422 28.9491 116.422 28.2211C116.422 27.5228 115.961 27.1736 115.04 27.1736H112.388V29.3131ZM130.13 17.7691C132.477 17.7691 134.305 18.4302 135.612 19.7525C136.934 21.0748 137.596 22.9394 137.596 25.3462C137.596 27.7531 136.934 29.6176 135.612 30.9399C134.305 32.2622 132.477 32.9234 130.13 32.9234C128.585 32.9234 127.248 32.6262 126.118 32.0319C125.004 31.4376 124.142 30.5759 123.533 29.4468C122.939 28.3176 122.642 26.9508 122.642 25.3462C122.642 23.7416 122.939 22.3748 123.533 21.2456C124.142 20.1165 125.004 19.2548 126.118 18.6605C127.248 18.0662 128.585 17.7691 130.13 17.7691ZM130.13 21.6691C129.372 21.6691 128.815 21.9662 128.458 22.5605C128.117 23.1399 127.946 24.0685 127.946 25.3462C127.946 26.6239 128.117 27.5599 128.458 28.1542C128.815 28.7336 129.372 29.0234 130.13 29.0234C130.888 29.0234 131.437 28.7336 131.779 28.1542C132.121 27.5599 132.292 26.6239 132.292 25.3462C132.292 24.0685 132.121 23.1399 131.779 22.5605C131.437 21.9662 130.888 21.6691 130.13 21.6691ZM152.554 32.7005H146.291L144.353 28.8896L142.57 32.7005H136.709L141.589 25.3685L136.887 17.9919H143.015L144.731 21.6691L146.47 17.9919H152.13L147.45 25.2348L152.554 32.7005Z" fill="white"/>
</svg>
